{"glyphs":{"0":{"ha":1431,"x_min":36,"x_max":1333,"o":"m 36 702 l 36 702 q 68 804 36 758 q 160 878 101 850 q 300 905 220 905 l 1069 905 q 1209 878 1149 905 q 1301 804 1268 850 q 1333 702 1333 758 l 1333 203 q 1301 101 1333 147 q 1209 27 1268 55 q 1069 0 1149 0 l 300 0 q 160 27 220 0 q 68 101 101 55 q 36 203 36 147 l 36 702 m 1058 157 l 1058 157 l 1058 749 l 311 749 l 311 157 l 1058 157 z "},"1":{"ha":1431,"x_min":373,"x_max":897,"o":"m 373 905 l 373 905 l 897 905 l 897 0 l 621 0 l 621 749 l 373 749 l 373 905 z "},"2":{"ha":1431,"x_min":16,"x_max":1329,"o":"m 1083 360 l 1083 360 l 288 360 l 288 157 l 585 157 l 711 157 l 1308 157 q 1274 85 1308 121 q 1179 24 1240 49 q 1038 0 1119 0 l 711 0 l 585 0 l 37 0 l 37 320 q 59 425 37 381 q 135 493 81 469 q 283 517 189 517 l 1079 517 l 1079 749 l 739 749 l 656 749 l 16 749 q 50 821 16 785 q 145 881 84 857 q 286 905 205 905 l 656 905 l 739 905 l 1071 905 q 1222 876 1165 905 q 1304 795 1278 846 q 1329 684 1329 745 l 1329 557 q 1307 452 1329 496 q 1231 384 1284 408 q 1083 360 1177 360 z "},"3":{"ha":1431,"x_min":7,"x_max":1290,"o":"m 1290 623 l 1290 623 q 1249 517 1290 554 q 1126 469 1207 481 q 1249 425 1207 460 q 1290 327 1290 390 l 1290 222 q 1264 110 1290 160 q 1182 30 1239 60 q 1031 0 1125 0 l 276 0 q 135 24 196 0 q 41 85 75 49 q 7 157 7 121 l 1039 157 l 1039 389 l 424 389 l 424 545 l 1039 545 l 1039 749 l 7 749 q 41 821 7 785 q 135 881 75 857 q 276 905 196 905 l 1031 905 q 1182 876 1125 905 q 1264 795 1239 846 q 1290 684 1290 745 l 1290 623 z "},"4":{"ha":1431,"x_min":-16,"x_max":1291,"o":"m 1234 905 l 1234 905 l 1291 905 l 1291 0 l 1015 0 l 1015 187 q 1014 187 1015 187 q 1013 187 1013 187 l 883 187 l 883 187 l 308 187 l -16 187 l -16 312 l 798 852 q 977 905 882 905 l 1015 905 l 1234 905 m 883 344 l 883 344 l 1015 344 l 1015 758 l 397 344 l 883 344 l 883 344 z "},"5":{"ha":1431,"x_min":23,"x_max":1336,"o":"m 1090 545 l 1090 545 q 1238 522 1184 545 q 1314 453 1291 498 q 1336 348 1336 409 l 1336 222 q 1311 110 1336 160 q 1229 30 1285 60 q 1078 0 1172 0 l 745 0 l 663 0 l 292 0 q 152 24 212 0 q 57 85 91 49 q 23 157 23 121 l 663 157 l 745 157 l 1086 157 l 1086 389 l 43 389 l 43 905 l 592 905 l 718 905 l 1045 905 q 1186 881 1126 905 q 1281 821 1247 857 q 1314 749 1314 785 l 718 749 l 592 749 l 294 749 l 294 545 l 1090 545 z "},"6":{"ha":1432,"x_min":53,"x_max":1346,"o":"m 1100 545 l 1100 545 q 1247 522 1194 545 q 1324 453 1301 498 q 1346 348 1346 409 l 1346 222 q 1321 110 1346 160 q 1238 30 1295 60 q 1087 0 1181 0 l 755 0 l 672 0 l 338 1 q 170 29 233 1 q 80 107 107 57 q 54 222 54 157 l 54 535 q 54 568 53 551 q 54 585 54 576 l 54 655 l 54 684 q 79 795 54 745 q 161 876 104 846 q 312 905 218 905 l 602 905 l 727 905 l 1055 905 q 1196 881 1135 905 q 1291 821 1257 857 q 1324 749 1324 785 l 727 749 l 602 749 l 304 749 l 304 655 l 304 545 l 1100 545 m 1095 157 l 1095 157 l 1095 389 l 304 389 l 304 157 l 672 157 l 755 157 l 1095 157 z "},"7":{"ha":1432,"x_min":-5,"x_max":1316,"o":"m 460 749 l 460 749 l 460 749 l -5 749 q 29 821 -5 785 q 124 881 63 857 q 265 905 184 905 l 512 905 l 512 905 l 1038 905 l 1316 905 l 1316 750 l 508 0 l 164 0 l 978 749 l 460 749 z "},"8":{"ha":1432,"x_min":36,"x_max":1329,"o":"m 1329 623 l 1329 623 q 1288 517 1329 554 q 1164 469 1246 481 q 1288 425 1246 460 q 1329 327 1329 390 l 1329 222 q 1304 110 1329 160 q 1221 30 1278 60 q 1070 0 1164 0 l 792 0 l 573 0 l 295 0 q 144 30 201 0 q 61 110 87 60 q 36 222 36 160 l 36 327 q 78 425 36 390 q 201 469 119 460 q 78 517 119 481 q 36 623 36 554 l 36 684 q 61 795 36 745 q 144 876 87 846 q 295 905 201 905 l 573 905 l 792 905 l 1070 905 q 1221 876 1164 905 q 1304 795 1278 846 q 1329 684 1329 745 l 1329 623 m 1078 157 l 1078 157 l 1078 389 l 792 389 l 792 389 l 683 389 l 573 389 l 573 389 l 287 389 l 287 157 l 573 157 l 792 157 l 1078 157 m 1078 545 l 1078 545 l 1078 749 l 792 749 l 573 749 l 287 749 l 287 545 l 573 545 l 573 545 l 683 545 l 792 545 l 792 545 l 1078 545 z "},"9":{"ha":1431,"x_min":15,"x_max":1308,"o":"m 261 360 l 261 360 q 114 384 168 360 q 37 452 60 408 q 15 557 15 496 l 15 684 q 40 795 15 745 q 123 876 66 846 q 274 905 180 905 l 606 905 l 689 905 l 1023 905 q 1191 876 1128 904 q 1281 799 1254 848 q 1308 684 1308 749 l 1308 370 q 1308 338 1308 355 q 1308 320 1308 329 l 1308 250 l 1308 222 q 1282 110 1308 160 q 1200 30 1257 60 q 1049 0 1143 0 l 759 0 l 634 0 l 306 0 q 165 24 226 0 q 71 85 104 49 q 37 157 37 121 l 634 157 l 759 157 l 1057 157 l 1057 250 l 1057 360 l 261 360 m 266 749 l 266 749 l 266 517 l 1057 517 l 1057 749 l 689 749 l 606 749 l 266 749 z "}," ":{"ha":858,"x_min":0,"x_max":0,"o":""}," ":{"ha":858,"x_min":0,"x_max":0,"o":""},"!":{"ha":607,"x_min":94,"x_max":370,"o":"m 94 261 l 94 261 l 94 905 l 370 905 l 370 261 l 94 261 m 94 0 l 94 0 l 94 156 l 370 156 l 370 0 l 94 0 z "},"\"":{"ha":852,"x_min":68,"x_max":675,"o":"m 68 576 l 68 576 l 68 905 l 343 905 l 343 750 q 314 662 343 702 q 228 599 284 623 q 89 576 171 576 l 68 576 m 400 576 l 400 576 l 400 905 l 675 905 l 675 750 q 646 662 675 702 q 560 599 616 623 q 421 576 503 576 l 400 576 z "},"#":{"ha":1380,"x_min":-8,"x_max":1242,"o":"m 1217 621 l 1217 621 l 1113 621 l 1054 321 l 1158 321 l 1133 194 l 1029 194 l 991 0 l 748 0 l 786 194 l 338 194 l 300 0 l 58 0 l 96 194 l -8 194 l 17 321 l 121 321 l 180 621 l 76 621 l 100 747 l 205 747 l 235 905 l 478 905 l 447 747 l 895 747 l 926 905 l 1168 905 l 1137 747 l 1242 747 l 1217 621 m 811 321 l 811 321 l 870 621 l 422 621 l 363 321 l 811 321 z "},"$":{"ha":1532,"x_min":33,"x_max":1347,"o":"m 1100 545 l 1100 545 q 1248 521 1194 545 q 1324 453 1302 497 q 1347 348 1347 409 l 1347 221 q 1321 110 1347 160 q 1239 30 1296 60 q 1088 0 1182 0 l 795 0 l 795 -154 l 585 -154 l 585 0 l 303 0 q 162 24 222 0 q 67 84 101 48 q 33 156 33 121 l 585 156 l 585 388 l 300 388 q 152 412 206 388 q 76 479 98 435 q 54 585 54 524 l 54 684 q 80 795 54 745 q 162 875 105 845 q 313 905 218 905 l 585 905 l 585 1059 l 795 1059 l 795 905 l 1055 905 q 1197 881 1136 905 q 1291 820 1257 857 q 1325 748 1325 784 l 795 748 l 795 545 l 1100 545 m 585 545 l 585 545 l 585 748 l 304 748 l 304 545 l 585 545 m 1096 156 l 1096 156 l 1096 388 l 795 388 l 795 156 l 1096 156 z "},"%":{"ha":2019,"x_min":35,"x_max":1836,"o":"m 840 606 l 840 606 q 775 483 840 531 q 612 434 711 434 l 262 434 q 99 483 163 434 q 35 606 35 531 l 35 732 q 99 856 35 808 q 262 905 163 905 l 612 905 q 775 856 711 905 q 840 732 840 808 l 840 606 m 611 557 l 611 557 l 611 782 l 263 782 l 263 557 l 611 557 m 1609 471 l 1609 471 q 1771 422 1707 471 q 1836 298 1836 373 l 1836 172 q 1771 48 1836 97 q 1609 0 1707 0 l 1258 0 q 1095 48 1159 0 q 1031 172 1031 97 l 1031 298 q 1095 422 1031 373 q 1258 471 1159 471 l 1609 471 m 1607 122 l 1607 122 l 1607 348 l 1259 348 l 1259 122 l 1607 122 m 1147 905 l 1147 905 l 1357 905 l 727 0 l 517 0 l 1147 905 z "},"&":{"ha":1615,"x_min":64,"x_max":1472,"o":"m 1472 545 l 1472 545 l 1472 389 l 1357 389 l 1357 336 l 1357 222 q 1332 110 1357 160 q 1250 30 1306 60 q 1099 0 1193 0 l 821 0 l 601 0 l 323 0 q 172 30 229 0 q 90 110 115 60 q 64 222 64 160 l 64 327 q 106 425 64 390 q 229 469 147 460 q 106 517 147 481 q 64 623 64 554 l 64 684 q 90 795 64 745 q 172 876 115 846 q 323 905 229 905 l 601 905 l 794 905 l 794 905 q 765 834 794 870 q 682 773 736 798 q 551 749 627 749 l 515 749 l 315 749 l 315 545 l 601 545 l 601 545 l 711 545 l 794 545 l 794 545 l 876 545 l 1106 545 l 1106 663 l 1357 663 l 1357 545 l 1472 545 m 1106 336 l 1106 336 l 1106 389 l 876 389 l 876 389 l 821 389 l 821 389 l 711 389 l 601 389 l 601 389 l 315 389 l 315 157 l 601 157 l 821 157 l 1106 157 l 1106 336 z "},"'":{"ha":519,"x_min":68,"x_max":343,"o":"m 68 576 l 68 576 l 68 905 l 343 905 l 343 750 q 314 662 343 702 q 228 599 284 623 q 89 576 171 576 l 68 576 z "},"(":{"ha":578,"x_min":104,"x_max":518,"o":"m 104 912 l 104 912 q 129 1017 104 973 q 211 1085 155 1061 q 362 1109 268 1109 l 518 1109 l 518 964 l 342 964 l 342 -60 l 518 -60 l 518 -204 l 350 -204 q 202 -180 256 -204 q 126 -113 149 -157 q 104 -7 104 -68 l 104 912 z "},")":{"ha":598,"x_min":-65,"x_max":349,"o":"m 349 912 l 349 -7 q 327 -113 349 -68 q 251 -180 304 -157 q 103 -204 197 -204 l -65 -204 l -65 -60 l 111 -60 l 111 964 l -65 964 l -65 1109 l 91 1109 q 241 1085 184 1109 q 324 1017 298 1061 q 349 912 349 973 l 349 912 z "},"*":{"ha":720,"x_min":68,"x_max":544,"o":"m 471 853 l 471 853 l 544 759 l 404 650 l 544 541 l 471 447 l 366 528 l 366 395 l 246 395 l 246 528 l 141 447 l 68 541 l 208 650 l 68 759 l 141 853 l 246 772 l 246 905 l 366 905 l 366 772 l 471 853 z "},"+":{"ha":818,"x_min":68,"x_max":642,"o":"m 452 713 l 452 713 l 452 515 l 642 515 l 642 389 l 452 389 l 452 191 l 257 191 l 257 389 l 68 389 l 68 515 l 257 515 l 257 713 l 452 713 z "},",":{"ha":519,"x_min":68,"x_max":343,"o":"m 68 -173 l 68 -173 l 68 156 l 343 156 l 343 1 q 314 -86 343 -47 q 228 -150 284 -126 q 89 -173 171 -173 l 68 -173 z "},"-":{"ha":745,"x_min":68,"x_max":569,"o":"m 68 389 l 68 389 l 68 515 l 569 515 l 569 389 l 68 389 z "},"­":{"ha":745,"x_min":68,"x_max":569,"o":"m 68 389 l 68 389 l 68 515 l 569 515 l 569 389 l 68 389 z "},".":{"ha":519,"x_min":68,"x_max":343,"o":"m 68 0 l 68 0 l 68 156 l 343 156 l 343 0 l 68 0 z "},"/":{"ha":609,"x_min":-107,"x_max":523,"o":"m 313 1109 l 313 1109 l 523 1109 l 102 -204 l -107 -204 l 313 1109 z "},":":{"ha":519,"x_min":68,"x_max":343,"o":"m 68 0 l 68 0 l 68 156 l 343 156 l 343 0 l 68 0 m 68 400 l 68 400 l 68 556 l 343 556 l 343 400 l 68 400 z "},";":{"ha":519,"x_min":68,"x_max":343,"o":"m 68 -173 l 68 -173 l 68 156 l 343 156 l 343 1 q 314 -86 343 -47 q 228 -150 284 -126 q 89 -173 171 -173 l 68 -173 m 68 400 l 68 400 l 68 556 l 343 556 l 343 400 l 68 400 z "},"<":{"ha":640,"x_min":-126,"x_max":440,"o":"m 440 54 l 440 54 l -126 455 l 440 840 l 440 616 l 147 422 l 440 210 l 440 54 z "},"=":{"ha":818,"x_min":68,"x_max":642,"o":"m 68 535 l 68 535 l 68 662 l 642 662 l 642 535 l 68 535 m 68 243 l 68 243 l 68 370 l 642 370 l 642 243 l 68 243 z "},">":{"ha":680,"x_min":65,"x_max":631,"o":"m 65 54 l 65 210 l 357 422 l 65 616 l 65 840 l 631 455 l 65 54 l 65 54 z "},"?":{"ha":1485,"x_min":1,"x_max":1314,"o":"m 342 0 l 342 0 l 342 156 l 617 156 l 617 0 l 342 0 m 1055 905 l 1055 905 q 1206 875 1149 905 q 1288 795 1263 845 q 1314 684 1314 745 l 1314 557 q 1291 452 1314 496 q 1215 384 1269 408 q 1067 360 1162 360 l 603 360 l 603 261 l 352 261 l 352 319 q 374 425 352 381 q 451 493 397 469 q 599 517 505 517 l 1063 517 l 1063 748 l 723 748 l 640 748 l 1 748 q 35 820 1 784 q 129 881 68 857 q 270 905 189 905 l 640 905 l 723 905 l 1055 905 z "},"@":{"ha":1894,"x_min":90,"x_max":1661,"o":"m 1439 905 l 1439 905 q 1557 882 1507 905 q 1634 821 1607 859 q 1661 735 1661 782 l 1661 16 q 1634 -69 1661 -31 q 1557 -131 1607 -108 q 1439 -154 1507 -154 l 1394 -154 l 1294 -154 q 1180 -132 1234 -154 q 1090 -68 1125 -110 q 1056 33 1056 -27 l 1056 81 l 1056 119 l 686 119 q 569 141 618 119 q 492 203 519 164 q 465 288 465 241 l 465 463 q 492 549 465 510 q 569 610 519 587 q 686 633 618 633 l 1286 633 l 1286 468 l 1286 119 l 1286 -23 l 1430 -23 l 1430 774 l 321 774 l 321 -23 l 869 -23 q 845 -82 869 -52 q 773 -133 821 -113 q 655 -154 726 -154 l 312 -154 q 194 -131 244 -154 q 117 -69 144 -108 q 90 16 90 -31 l 90 735 q 117 821 90 782 q 194 882 144 859 q 312 905 244 905 l 1439 905 m 1056 468 l 1056 468 l 1056 502 l 695 502 l 695 250 l 1056 250 l 1056 468 z "},"A":{"ha":1747,"x_min":22,"x_max":4195,"o":"m 4195 -644 l 4195 -644 q 3862 -663 4077 -654 q 3364 -662 3647 -671 q 2760 -609 3082 -653 q 2108 -470 2439 -566 q 1466 -212 1777 -375 q 892 198 1155 -50 l 22 198 l 158 343 l 753 343 q 470 749 594 524 l 634 951 q 734 813 683 886 q 961 512 833 671 q 1266 194 1088 353 q 1697 -111 1444 35 q 2298 -372 1949 -256 q 3116 -560 2647 -488 q 4195 -644 3584 -631 z "},"B":{"ha":1517,"x_min":13,"x_max":1302,"o":"m 1302 623 l 1302 623 q 1261 518 1302 554 q 1137 469 1219 481 q 1261 425 1219 460 q 1302 327 1302 390 l 1302 222 q 1277 110 1302 161 q 1194 30 1251 60 q 1044 0 1137 0 l 711 0 l 628 0 l 288 0 l 215 0 l 13 0 l 13 545 l 1051 545 l 1051 749 l 753 749 l 628 749 l 299 749 q 150 773 215 749 q 49 834 85 798 q 13 905 13 870 l 13 905 l 194 905 l 288 905 l 628 905 l 753 905 l 1044 905 q 1194 876 1137 905 q 1277 795 1251 846 q 1302 684 1302 745 l 1302 623 m 1051 157 l 1051 157 l 1051 389 l 288 389 l 288 157 l 628 157 l 711 157 l 1051 157 z "},"C":{"ha":1478,"x_min":8,"x_max":1311,"o":"m 283 749 l 283 749 l 14 749 q 101 861 34 817 q 273 905 169 905 l 589 905 l 718 905 l 1042 905 q 1182 881 1122 905 q 1277 821 1243 857 q 1311 749 1311 785 l 718 749 l 614 749 l 589 749 l 283 749 m 589 157 l 589 157 l 718 157 l 1311 157 q 1277 85 1311 121 q 1182 24 1243 49 q 1042 0 1122 0 l 718 0 l 589 0 l 273 0 q 133 27 192 0 q 41 101 73 55 q 8 203 8 147 l 8 531 l 283 531 l 283 157 l 589 157 z "},"D":{"ha":1536,"x_min":13,"x_max":1310,"o":"m 1045 905 l 1045 905 q 1186 878 1126 905 q 1278 804 1245 850 q 1310 703 1310 758 l 1310 203 q 1278 101 1310 147 q 1186 27 1245 55 q 1045 0 1126 0 l 13 0 l 13 545 l 288 545 l 288 157 l 1035 157 l 1035 749 l 490 749 l 299 749 q 150 773 214 749 q 49 834 85 798 q 13 905 13 870 l 194 905 l 288 905 l 490 905 l 1045 905 z "},"E":{"ha":1351,"x_min":26,"x_max":1182,"o":"m 964 905 l 964 905 q 1055 889 1015 905 q 1124 847 1095 872 q 1167 795 1152 822 q 1182 749 1182 769 l 26 749 l 26 905 l 964 905 m 302 374 l 302 374 l 302 157 l 1182 157 q 1156 86 1182 122 q 1080 25 1129 50 q 964 0 1031 0 l 26 0 l 26 79 l 26 157 l 26 374 l 26 453 l 26 531 l 944 531 l 944 374 l 302 374 z "},"F":{"ha":1338,"x_min":35,"x_max":1192,"o":"m 311 749 l 311 749 l 311 531 l 954 531 l 954 374 l 311 374 l 311 0 l 35 0 l 35 374 l 35 531 l 35 749 l 35 788 l 35 905 l 973 905 q 1064 889 1024 905 q 1133 847 1105 872 q 1177 795 1162 822 q 1192 749 1192 769 l 311 749 z "},"G":{"ha":1543,"x_min":8,"x_max":1310,"o":"m 534 749 l 534 749 l 283 749 l 14 749 q 101 861 33 817 q 273 905 169 905 l 589 905 l 718 905 l 1041 905 q 1182 881 1122 905 q 1277 821 1243 857 q 1310 749 1310 785 l 718 749 l 589 749 l 534 749 m 715 374 l 715 374 l 715 534 l 1310 534 l 1310 458 l 1310 374 l 1310 157 l 1310 96 l 1310 0 l 718 0 l 589 0 l 273 0 q 133 27 192 0 q 41 101 73 55 q 8 203 8 147 l 8 531 l 283 531 l 283 157 l 589 157 l 718 157 l 1035 157 l 1035 374 l 715 374 z "},"H":{"ha":1590,"x_min":35,"x_max":1333,"o":"m 1057 905 l 1057 905 l 1333 905 l 1333 0 l 1319 0 q 1158 27 1215 0 q 1079 100 1101 54 q 1057 200 1057 145 l 1057 374 l 311 374 l 311 0 l 35 0 l 35 905 l 311 905 l 311 531 l 1057 531 l 1057 905 z "},"I":{"ha":564,"x_min":31,"x_max":307,"o":"m 307 0 l 307 0 l 307 905 l 31 905 l 31 200 q 53 100 31 145 q 131 27 75 54 q 292 0 188 0 l 307 0 z "},"J":{"ha":1421,"x_min":-66,"x_max":1187,"o":"m 637 749 l 637 749 l 508 749 l 369 749 l 369 905 l 508 905 l 637 905 l 1187 905 l 1187 749 l 911 749 l 724 749 l 637 749 m 911 531 l 911 531 l 1187 531 l 1187 203 q 1155 101 1187 147 q 1063 27 1122 55 q 922 0 1003 0 l 607 0 l 477 0 l 203 0 q 62 24 123 0 q -33 85 1 49 q -66 157 -66 121 l 477 157 l 607 157 l 911 157 l 911 531 z "},"K":{"ha":1705,"x_min":35,"x_max":3426,"o":"m 595 331 l 595 331 q 807 475 699 407 l 1548 0 l 1097 0 l 595 331 m 3426 1443 l 3426 1443 q 3279 1423 3426 1443 q 2882 1354 3132 1404 q 2314 1215 2632 1304 q 1646 989 1995 1126 q 954 659 1297 852 q 311 205 610 465 l 311 0 l 35 0 l 35 905 l 311 905 l 311 522 l 311 505 q 847 810 538 655 q 1545 1100 1156 964 q 2405 1328 1935 1236 q 3426 1443 2875 1420 z "},"L":{"ha":1440,"x_min":35,"x_max":1280,"o":"m 311 157 l 311 157 l 1280 157 l 1280 157 q 1253 86 1280 122 q 1178 25 1227 50 q 1061 0 1129 0 l 311 0 l 35 0 l 35 157 l 35 749 l 35 905 l 52 905 q 212 879 156 905 q 290 807 268 852 q 311 708 311 762 l 311 157 z "},"M":{"ha":1798,"x_min":35,"x_max":1539,"o":"m 1184 804 l 1184 804 q 1261 879 1213 852 q 1363 905 1308 905 l 1539 905 l 1539 0 l 1515 0 q 1374 26 1430 0 q 1291 95 1318 52 q 1263 190 1263 138 l 1263 570 l 896 0 l 677 0 l 311 570 l 311 175 q 285 87 311 127 q 208 24 260 47 q 74 0 155 0 l 35 0 l 35 905 l 211 905 q 314 879 266 905 q 391 804 361 852 l 787 209 l 1184 804 z "},"N":{"ha":1590,"x_min":35,"x_max":1333,"o":"m 1057 730 l 1057 730 q 1083 818 1057 778 q 1161 882 1108 858 q 1295 905 1213 905 l 1333 905 l 1333 0 l 1210 0 q 941 99 1062 0 l 311 658 l 311 0 l 35 0 l 35 905 l 159 905 q 427 808 306 905 l 1057 254 l 1057 730 z "},"O":{"ha":1519,"x_min":8,"x_max":1305,"o":"m 284 749 l 284 749 l 14 749 q 102 861 34 817 q 273 905 170 905 l 1041 905 q 1213 861 1145 905 q 1299 749 1280 817 l 1030 749 l 284 749 m 1030 531 l 1030 531 l 1305 531 l 1305 203 q 1273 101 1305 147 q 1181 27 1240 55 q 1041 0 1122 0 l 273 0 q 133 27 193 0 q 41 101 73 55 q 8 203 8 147 l 8 531 l 284 531 l 284 157 l 1030 157 l 1030 531 z "},"P":{"ha":1507,"x_min":26,"x_max":1332,"o":"m 1049 905 l 1049 905 q 1206 876 1143 905 q 1300 795 1269 846 q 1332 684 1332 745 l 1332 596 q 1300 485 1332 535 q 1206 405 1269 435 q 1049 375 1143 375 l 302 375 l 302 0 l 26 0 l 26 531 l 998 531 q 1056 554 1030 531 q 1082 609 1082 576 l 1082 671 q 1056 726 1082 703 q 998 749 1030 749 l 26 749 l 26 905 l 137 905 l 302 905 l 1049 905 z "},"Q":{"ha":1602,"x_min":21,"x_max":1469,"o":"m 1043 157 l 1043 157 l 1282 157 l 1469 157 q 1435 85 1469 121 q 1341 24 1402 49 q 1200 0 1280 0 l 829 0 l 645 0 l 286 0 q 145 27 205 0 q 54 101 86 55 q 21 203 21 147 l 21 703 q 54 804 21 758 q 145 878 86 850 q 286 905 205 905 l 1054 905 q 1194 878 1135 905 q 1286 804 1253 850 q 1318 703 1318 758 l 1318 358 l 1043 358 l 1043 749 l 296 749 l 296 157 l 825 157 l 968 157 l 1043 157 z "},"R":{"ha":1510,"x_min":26,"x_max":1332,"o":"m 26 531 l 26 531 l 302 531 l 302 0 l 26 0 l 26 531 m 1332 600 l 1332 600 q 1300 488 1332 538 q 1206 408 1269 437 q 1048 378 1143 378 l 1010 378 l 1314 0 l 981 0 l 705 350 l 681 378 l 547 534 l 705 534 l 875 534 l 998 534 q 1055 557 1029 534 q 1081 612 1081 580 l 1081 671 q 1055 726 1081 703 q 998 749 1029 749 l 418 749 l 302 749 l 26 749 l 26 905 l 1048 905 q 1206 876 1143 905 q 1300 795 1269 846 q 1332 684 1332 745 l 1332 600 z "},"S":{"ha":1486,"x_min":-23,"x_max":1290,"o":"m 671 749 l 671 749 l 546 749 l 5 749 q 46 829 16 794 q 127 885 76 865 q 256 905 179 905 l 546 905 l 671 905 l 999 905 q 1140 881 1080 905 q 1235 821 1201 857 q 1268 749 1268 785 l 671 749 m 1044 531 l 1044 531 q 1192 507 1138 531 q 1267 439 1245 484 q 1290 334 1290 395 l 1290 222 q 1264 110 1290 161 q 1182 30 1239 60 q 1031 0 1126 0 l 699 0 l 616 0 l 246 0 q 105 24 166 0 q 11 85 45 49 q -23 157 -23 121 l 616 157 l 699 157 l 1040 157 l 1040 374 l 243 374 q 63 415 119 374 q 0 531 8 456 l 1044 531 z "},"T":{"ha":1448,"x_min":-33,"x_max":1265,"o":"m 1265 905 l 1265 905 l 1265 749 l 754 749 l 754 0 l 725 0 q 582 23 636 0 q 503 87 528 46 q 479 184 479 129 l 479 749 l -33 749 l -33 905 l 479 905 l 754 905 l 1265 905 z "},"U":{"ha":1572,"x_min":29,"x_max":1326,"o":"m 1051 720 l 1051 720 q 1078 813 1051 772 q 1159 880 1104 855 q 1298 905 1214 905 l 1326 905 l 1326 203 q 1294 101 1326 147 q 1202 27 1261 55 q 1062 0 1143 0 l 294 0 q 154 27 213 0 q 62 101 94 55 q 29 203 29 147 l 29 905 l 57 905 q 204 880 150 905 q 281 813 258 855 q 304 720 304 771 l 304 157 l 1051 157 l 1051 720 z "},"V":{"ha":1750,"x_min":-76,"x_max":3278,"o":"m 241 905 l 241 905 l -76 905 l 606 -46 q 883 313 724 128 q 1256 675 1041 498 q 1758 1007 1471 853 q 2422 1274 2046 1161 q 3278 1443 2797 1388 q 2415 1364 2818 1451 q 1672 1122 2011 1277 q 1069 770 1333 968 q 623 357 804 572 l 480 562 l 379 707 l 241 905 z "},"W":{"ha":2363,"x_min":-76,"x_max":3894,"o":"m 1316 905 l 1316 905 l 1128 653 l 1042 776 l 1141 905 l 1316 905 m 671 288 l 671 288 l 779 430 l 868 306 l 605 -46 l -76 905 l 241 905 l 379 707 l 479 562 l 671 288 m 1239 357 l 1239 357 q 1685 770 1420 572 q 2288 1122 1950 968 q 3031 1364 2627 1277 q 3894 1443 3434 1451 q 3038 1274 3413 1388 q 2375 1007 2662 1161 q 1872 675 2087 853 q 1499 313 1657 498 q 1221 -46 1340 128 l 541 905 l 858 905 l 996 707 l 1097 562 l 1239 357 z "},"X":{"ha":1938,"x_min":-17,"x_max":3738,"o":"m 842 281 l 842 281 q 1068 442 952 366 l 1667 0 l 1219 0 l 842 281 m 749 677 l 749 677 q 511 528 619 601 l 3 905 l 440 905 l 749 677 m -17 0 l -17 0 q 42 57 -17 0 q 218 212 100 115 q 512 431 336 309 q 923 685 688 553 q 1451 944 1158 817 q 2096 1177 1744 1071 q 2859 1354 2448 1283 q 3738 1443 3269 1424 q 3615 1427 3738 1443 q 3280 1371 3493 1411 q 2791 1260 3067 1331 q 2203 1081 2515 1190 q 1573 821 1892 973 q 957 465 1255 669 q 410 0 659 262 l -17 0 z "},"Y":{"ha":1696,"x_min":-81,"x_max":3267,"o":"m 612 459 l 612 459 q 670 515 640 488 q 947 729 801 632 q 1234 901 1086 823 q 1565 1053 1396 985 q 1937 1182 1748 1127 q 2346 1280 2139 1241 q 2790 1339 2566 1320 q 3267 1355 3028 1360 q 2325 1194 2732 1303 q 1619 937 1919 1085 q 1104 621 1320 789 q 734 286 888 454 l 734 0 l 459 0 l 459 283 q 612 459 529 377 m 565 515 l 565 515 q 473 432 515 477 q 402 349 431 387 l -81 905 l 236 905 l 565 515 z "},"Z":{"ha":1483,"x_min":-26,"x_max":1294,"o":"m 895 157 l 895 157 l 895 157 l 1294 157 q 1260 85 1294 121 q 1165 24 1226 49 q 1025 0 1105 0 l 895 0 l 895 0 l 320 0 l -3 0 l -3 125 l 745 621 l 1103 621 l 409 157 l 895 157 m 438 749 l 438 749 l 438 749 l -26 749 q 7 821 -26 785 q 102 881 41 857 q 243 905 162 905 l 490 905 l 490 905 l 1016 905 l 1294 905 l 1294 750 l 1292 749 l 937 749 l 438 749 z "},"[":{"ha":659,"x_min":68,"x_max":483,"o":"m 227 1109 l 227 1109 l 307 1109 l 483 1109 l 483 964 l 307 964 l 307 -60 l 483 -60 l 483 -204 l 307 -204 l 227 -204 l 68 -204 l 68 1109 l 227 1109 z "},"\\":{"ha":616,"x_min":-20,"x_max":610,"o":"m 189 1109 l 610 -204 l 399 -204 l -20 1109 l 189 1109 l 189 1109 z "},"]":{"ha":659,"x_min":68,"x_max":483,"o":"m 323 1109 l 483 1109 l 483 -204 l 323 -204 l 244 -204 l 68 -204 l 68 -60 l 244 -60 l 244 964 l 68 964 l 68 1109 l 244 1109 l 323 1109 l 323 1109 z "},"^":{"ha":876,"x_min":68,"x_max":699,"o":"m 391 942 l 391 942 l 699 555 l 511 555 l 365 744 l 205 555 l 68 555 l 391 942 z "},"_":{"ha":745,"x_min":68,"x_max":569,"o":"m 68 -180 l 68 -180 l 68 -54 l 569 -54 l 569 -180 l 68 -180 z "},"`":{"ha":453,"x_min":0,"x_max":0,"o":""},"a":{"ha":1456,"x_min":-1,"x_max":1323,"o":"m 1323 0 l 1323 0 l 991 0 l 847 198 l -1 198 l 135 343 l 742 343 l 447 749 l 611 951 l 1323 0 z "},"b":{"ha":1557,"x_min":86,"x_max":1375,"o":"m 1375 623 l 1375 623 q 1334 517 1375 554 q 1211 469 1292 481 q 1334 425 1293 460 q 1375 327 1375 390 l 1375 222 q 1350 110 1375 160 q 1267 30 1324 60 q 1116 0 1211 0 l 785 0 l 701 0 l 361 0 l 288 0 l 86 0 l 86 905 l 267 905 l 361 905 l 701 905 l 827 905 l 1116 905 q 1267 876 1211 905 q 1350 795 1324 846 q 1375 684 1375 745 l 1375 623 m 1124 157 l 1124 157 l 1124 389 l 361 389 l 361 157 l 701 157 l 785 157 l 1124 157 m 1124 545 l 1124 545 l 1124 749 l 827 749 l 701 749 l 361 749 l 361 545 l 1124 545 z "},"c":{"ha":1487,"x_min":53,"x_max":1356,"o":"m 633 157 l 633 157 l 763 157 l 1356 157 q 1322 85 1356 121 q 1227 24 1288 49 q 1086 0 1166 0 l 763 0 l 633 0 l 317 0 q 177 27 237 0 q 85 101 118 55 q 53 203 53 147 l 53 702 q 85 804 53 758 q 177 878 118 850 q 317 905 237 905 l 633 905 l 763 905 l 1086 905 q 1227 881 1166 905 q 1322 821 1288 857 q 1356 749 1356 785 l 763 749 l 633 749 l 328 749 l 328 157 l 633 157 z "},"d":{"ha":1579,"x_min":86,"x_max":1383,"o":"m 1119 905 l 1119 905 q 1259 878 1200 905 q 1351 804 1318 850 q 1383 702 1383 758 l 1383 203 q 1351 101 1383 147 q 1259 27 1318 55 q 1119 0 1200 0 l 86 0 l 86 905 l 1119 905 m 1108 157 l 1108 157 l 1108 749 l 361 749 l 361 157 l 1108 157 z "},"e":{"ha":1491,"x_min":81,"x_max":1324,"o":"m 81 905 l 81 905 l 1324 905 l 1324 749 l 81 749 l 81 905 m 356 446 l 356 446 l 356 157 l 1324 157 l 1324 0 l 356 0 l 81 0 l 81 157 l 81 446 l 81 603 l 356 603 l 918 603 l 918 446 l 356 446 z "},"f":{"ha":1470,"x_min":81,"x_max":1324,"o":"m 81 905 l 81 905 l 1324 905 l 1324 749 l 81 749 l 81 905 m 81 603 l 81 603 l 356 603 l 918 603 l 918 446 l 356 446 l 356 0 l 81 0 l 81 446 l 81 603 z "},"g":{"ha":1545,"x_min":53,"x_max":1356,"o":"m 1080 157 l 1080 157 l 1080 458 l 1356 458 l 1356 157 l 1356 96 l 1356 0 l 763 0 l 633 0 l 317 0 q 177 27 237 0 q 85 101 118 55 q 53 203 53 147 l 53 702 q 85 804 53 758 q 177 878 118 850 q 317 905 237 905 l 633 905 l 763 905 l 1086 905 q 1227 881 1166 905 q 1322 821 1288 857 q 1356 749 1356 785 l 763 749 l 633 749 l 328 749 l 328 157 l 633 157 l 763 157 l 1080 157 z "},"h":{"ha":1607,"x_min":86,"x_max":1383,"o":"m 1108 905 l 1108 905 l 1383 905 l 1383 0 l 1108 0 l 1108 374 l 361 374 l 361 0 l 86 0 l 86 905 l 361 905 l 361 531 l 1108 531 l 1108 905 z "},"i":{"ha":586,"x_min":86,"x_max":361,"o":"m 361 0 l 361 0 l 361 905 l 86 905 l 86 0 l 361 0 z "},"j":{"ha":1405,"x_min":-62,"x_max":1192,"o":"m 513 905 l 513 905 l 642 905 l 1192 905 l 1192 203 q 1159 101 1192 147 q 1067 27 1126 55 q 927 0 1008 0 l 611 0 l 481 0 l 208 0 q 67 24 127 0 q -28 85 6 49 q -62 157 -62 121 l 481 157 l 611 157 l 916 157 l 916 749 l 642 749 l 513 749 l 374 749 l 374 905 l 513 905 z "},"k":{"ha":1660,"x_min":86,"x_max":1599,"o":"m 1148 0 l 1148 0 l 541 399 l 361 307 l 361 0 l 86 0 l 86 905 l 361 905 l 361 522 l 1068 905 l 1519 905 l 782 524 l 1599 0 l 1148 0 z "},"l":{"ha":1478,"x_min":86,"x_max":1330,"o":"m 361 157 l 361 157 l 1330 157 l 1330 0 l 361 0 l 86 0 l 86 157 l 86 749 l 86 905 l 361 905 l 361 157 z "},"m":{"ha":1815,"x_min":86,"x_max":1590,"o":"m 1235 804 l 1235 804 q 1312 879 1264 852 q 1415 905 1359 905 l 1590 905 l 1590 0 l 1315 0 l 1315 570 l 947 0 l 728 0 l 361 570 l 361 0 l 86 0 l 86 905 l 262 905 q 365 878 317 905 q 441 804 412 851 l 838 209 l 1235 804 z "},"n":{"ha":1607,"x_min":86,"x_max":1383,"o":"m 1108 905 l 1108 905 l 1383 905 l 1383 0 l 1261 0 q 992 99 1113 0 l 361 658 l 361 0 l 86 0 l 86 905 l 210 905 q 477 807 357 905 l 1108 254 l 1108 905 z "},"o":{"ha":1546,"x_min":53,"x_max":1350,"o":"m 53 702 l 53 702 q 85 804 53 758 q 177 878 118 850 q 317 905 237 905 l 1086 905 q 1226 878 1166 905 q 1318 804 1285 850 q 1350 702 1350 758 l 1350 203 q 1318 101 1350 147 q 1226 27 1285 55 q 1086 0 1166 0 l 317 0 q 177 27 237 0 q 85 101 118 55 q 53 203 53 147 l 53 702 m 1075 157 l 1075 157 l 1075 749 l 328 749 l 328 157 l 1075 157 z "},"p":{"ha":1538,"x_min":86,"x_max":1392,"o":"m 361 905 l 361 905 l 1108 905 q 1265 876 1202 905 q 1360 795 1329 846 q 1392 684 1392 745 l 1392 572 q 1360 460 1392 511 q 1265 380 1329 410 q 1108 351 1202 351 l 361 351 l 361 0 l 86 0 l 86 905 l 196 905 l 361 905 m 361 507 l 361 507 l 1057 507 q 1115 530 1089 507 q 1141 585 1141 553 l 1141 671 q 1115 726 1141 703 q 1057 749 1089 749 l 361 749 l 361 507 z "},"q":{"ha":1607,"x_min":53,"x_max":1501,"o":"m 1314 157 l 1314 157 l 1501 157 q 1467 85 1501 121 q 1373 24 1434 49 q 1232 0 1312 0 l 861 0 l 677 0 l 317 0 q 177 27 237 0 q 85 101 118 55 q 53 203 53 147 l 53 702 q 85 804 53 758 q 177 878 118 850 q 317 905 237 905 l 1086 905 q 1226 878 1166 905 q 1318 804 1285 850 q 1350 702 1350 758 l 1350 280 q 1314 157 1350 208 m 328 157 l 328 157 l 1000 157 l 1075 157 l 1075 749 l 328 749 l 328 157 z "},"r":{"ha":1541,"x_min":86,"x_max":1392,"o":"m 1392 572 l 1392 572 q 1360 460 1392 511 q 1265 380 1329 410 q 1108 351 1202 351 l 1070 351 l 1373 0 l 1041 0 l 765 323 l 741 351 l 606 507 l 765 507 l 935 507 l 1057 507 q 1115 530 1089 507 q 1141 585 1141 553 l 1141 671 q 1115 726 1141 703 q 1057 749 1089 749 l 361 749 l 361 0 l 86 0 l 86 905 l 1108 905 q 1265 876 1202 905 q 1360 795 1329 846 q 1392 684 1392 745 l 1392 572 z "},"s":{"ha":1499,"x_min":28,"x_max":1341,"o":"m 1095 545 l 1095 545 q 1243 522 1190 545 q 1319 453 1297 498 q 1341 348 1341 409 l 1341 222 q 1316 110 1341 160 q 1234 30 1291 60 q 1083 0 1177 0 l 751 0 l 668 0 l 298 0 q 157 24 218 0 q 62 85 96 49 q 28 157 28 121 l 668 157 l 751 157 l 1090 157 l 1090 389 l 295 389 q 147 412 201 389 q 71 480 94 436 q 49 585 49 524 l 49 684 q 74 795 49 745 q 157 876 100 846 q 307 905 214 905 l 597 905 l 723 905 l 1050 905 q 1192 881 1131 905 q 1286 821 1252 857 q 1320 749 1320 785 l 723 749 l 597 749 l 300 749 l 300 545 l 1095 545 z "},"t":{"ha":1469,"x_min":24,"x_max":1321,"o":"m 1321 905 l 1321 905 l 1321 749 l 810 749 l 810 0 l 534 0 l 534 749 l 24 749 l 24 905 l 534 905 l 810 905 l 1321 905 z "},"u":{"ha":1589,"x_min":79,"x_max":1377,"o":"m 1101 905 l 1101 905 l 1377 905 l 1377 203 q 1344 101 1377 147 q 1252 27 1312 55 q 1112 0 1193 0 l 344 0 q 204 27 263 0 q 112 101 144 55 q 79 203 79 147 l 79 905 l 355 905 l 355 157 l 1101 157 l 1101 905 z "},"v":{"ha":1463,"x_min":-23,"x_max":1369,"o":"m 294 905 l 294 905 l -23 905 l 658 -46 l 1369 905 l 1194 905 l 724 288 l 533 562 l 432 707 l 294 905 z "},"w":{"ha":2074,"x_min":-23,"x_max":1979,"o":"m 1979 905 l 1979 905 l 1268 -46 l 970 371 l 658 -46 l -23 905 l 294 905 l 432 707 l 533 562 l 724 288 l 881 494 l 587 905 l 904 905 l 1042 707 l 1042 707 l 1194 905 l 1369 905 l 1128 583 l 1143 562 l 1333 288 l 1803 905 l 1979 905 z "},"x":{"ha":1529,"x_min":-8,"x_max":1432,"o":"m 1432 905 l 1432 905 l 870 479 l 1432 0 l 1044 0 l 667 325 l 240 0 l -8 0 l 553 423 l -8 905 l 370 905 l 755 576 l 1192 905 l 1432 905 z "},"y":{"ha":1487,"x_min":-26,"x_max":1402,"o":"m 1215 905 l 1215 905 l 1402 905 l 825 395 l 825 0 l 550 0 l 550 372 l -26 905 l 291 905 l 739 496 l 1215 905 z "},"z":{"ha":1485,"x_min":17,"x_max":1337,"o":"m 1337 863 l 1337 863 q 1313 764 1337 810 q 1243 687 1288 718 l 452 157 l 939 157 l 939 157 l 1337 157 q 1303 85 1337 121 q 1209 24 1270 49 q 1068 0 1148 0 l 939 0 l 939 0 l 363 0 l 40 0 l 40 125 l 981 749 l 481 749 l 481 749 l 17 749 q 51 821 17 785 q 145 881 85 857 q 286 905 206 905 l 534 905 l 534 905 l 1059 905 l 1337 905 l 1337 863 z "},"{":{"ha":453,"x_min":0,"x_max":0,"o":""},"|":{"ha":454,"x_min":68,"x_max":278,"o":"m 68 -204 l 68 -204 l 68 1109 l 278 1109 l 278 -204 l 68 -204 z "},"}":{"ha":453,"x_min":0,"x_max":0,"o":""},"~":{"ha":4609,"x_min":68,"x_max":4433,"o":"m 275 755 l 275 755 q 323 769 297 764 q 368 777 349 775 q 387 772 387 778 q 365 731 387 770 q 312 637 343 692 q 210 459 245 523 q 162 370 174 396 q 153 342 150 345 q 191 336 157 338 q 273 334 225 334 l 389 334 l 383 268 q 379 224 381 248 q 372 147 376 179 l 367 94 l 335 98 q 198 159 264 109 q 95 281 132 210 q 77 324 83 307 q 69 365 71 342 q 68 435 68 389 q 69 503 68 479 q 75 544 71 527 q 90 581 80 560 q 275 755 148 703 m 430 713 l 430 713 l 440 777 l 471 772 q 607 706 541 760 q 708 582 673 653 q 723 544 718 561 q 729 504 728 528 q 731 435 731 479 q 729 368 731 391 q 723 327 728 344 q 708 289 718 310 q 551 129 654 182 q 497 107 527 117 q 444 95 467 98 q 420 97 420 91 q 454 159 420 99 q 535 307 487 220 q 617 455 584 393 q 650 520 650 517 q 530 529 650 528 l 410 529 l 416 589 q 422 649 418 614 q 430 713 426 684 m 1612 694 l 1612 694 q 1721 705 1649 707 q 1788 698 1765 703 q 1839 677 1811 693 q 1952 560 1912 639 q 1968 517 1965 540 q 1972 439 1972 494 q 1968 362 1972 385 q 1952 319 1965 340 q 1729 174 1880 181 q 1619 185 1665 170 q 1531 241 1574 200 q 1465 328 1484 282 q 1446 439 1446 373 q 1450 504 1446 479 q 1466 553 1454 528 q 1528 636 1485 595 q 1612 694 1571 677 m 1777 555 l 1777 555 q 1690 571 1733 580 q 1615 526 1646 562 q 1585 439 1585 491 q 1620 345 1585 382 q 1712 308 1656 308 q 1801 346 1763 308 q 1840 439 1838 385 q 1821 503 1840 467 q 1777 555 1802 538 m 3211 693 l 3211 693 q 3317 707 3258 709 q 3419 686 3377 705 q 3452 668 3438 677 q 3469 654 3466 659 q 3462 629 3471 646 q 3440 593 3454 612 q 3414 562 3427 574 q 3396 549 3402 549 q 3383 554 3392 551 q 3346 567 3366 559 q 3267 568 3304 581 q 3207 520 3230 555 q 3183 438 3183 486 q 3220 344 3183 380 q 3313 308 3256 308 l 3353 308 l 3353 363 l 3353 419 l 3419 416 l 3485 414 l 3485 317 l 3485 218 l 3446 198 q 3338 173 3405 176 q 3218 184 3270 169 q 3129 241 3172 200 q 3063 327 3085 281 q 3042 443 3041 380 q 3067 556 3042 505 q 3130 639 3089 600 q 3211 693 3171 678 m 1020 689 l 1020 689 q 1060 697 1020 695 q 1204 697 1101 699 l 1385 694 l 1385 640 l 1385 584 l 1273 582 l 1160 579 l 1160 529 l 1160 479 l 1243 476 l 1326 473 l 1326 414 l 1326 355 l 1243 352 l 1160 349 l 1160 264 l 1160 180 l 1090 182 l 1020 184 l 1017 431 q 1017 608 1017 535 q 1020 689 1018 682 m 2061 439 l 2061 439 l 2061 699 l 2136 699 l 2210 698 l 2296 556 l 2384 414 l 2384 557 l 2384 699 l 2452 699 l 2520 699 l 2520 439 l 2520 180 l 2446 182 l 2372 184 l 2287 328 l 2201 469 l 2197 328 l 2193 184 l 2127 182 l 2061 180 l 2061 439 m 2597 640 l 2597 640 l 2597 699 l 2803 697 l 3009 694 l 3009 640 l 3009 584 l 2943 582 l 2877 579 l 2875 382 l 2873 184 l 2803 182 l 2732 180 l 2732 380 l 2732 580 l 2665 580 l 2597 580 l 2597 640 m 3583 439 l 3583 439 l 3583 699 l 3772 697 l 3961 694 l 3961 640 l 3961 584 l 3840 582 l 3718 579 l 3718 537 l 3718 495 l 3812 495 l 3906 495 l 3906 439 l 3906 385 l 3812 385 l 3718 385 l 3718 342 l 3718 299 l 3842 299 l 3965 299 l 3965 240 l 3965 180 l 3774 180 l 3583 180 l 3583 439 m 4020 687 l 4020 687 q 4038 694 4020 692 q 4102 698 4057 697 q 4228 699 4146 699 l 4433 699 l 4433 640 l 4433 580 l 4365 580 l 4297 580 l 4297 380 l 4297 180 l 4227 182 l 4156 184 l 4154 382 l 4152 579 l 4086 582 l 4020 584 l 4017 630 q 4017 665 4017 649 q 4020 687 4017 682 z "},"¡":{"ha":453,"x_min":0,"x_max":0,"o":""},"¢":{"ha":453,"x_min":0,"x_max":0,"o":""},"£":{"ha":453,"x_min":0,"x_max":0,"o":""},"¤":{"ha":453,"x_min":0,"x_max":0,"o":""},"¥":{"ha":453,"x_min":0,"x_max":0,"o":""},"¦":{"ha":453,"x_min":0,"x_max":0,"o":""},"§":{"ha":453,"x_min":0,"x_max":0,"o":""},"¨":{"ha":453,"x_min":0,"x_max":0,"o":""},"©":{"ha":453,"x_min":0,"x_max":0,"o":""},"ª":{"ha":453,"x_min":0,"x_max":0,"o":""},"«":{"ha":453,"x_min":0,"x_max":0,"o":""},"¬":{"ha":453,"x_min":0,"x_max":0,"o":""},"®":{"ha":453,"x_min":0,"x_max":0,"o":""},"¯":{"ha":453,"x_min":0,"x_max":0,"o":""},"°":{"ha":1049,"x_min":68,"x_max":873,"o":"m 646 905 l 646 905 q 809 856 745 905 q 873 732 873 808 l 873 606 q 809 483 873 531 q 646 434 745 434 l 295 434 q 132 483 197 434 q 68 606 68 531 l 68 732 q 132 856 68 808 q 295 905 197 905 l 646 905 m 644 557 l 644 557 l 644 782 l 296 782 l 296 557 l 644 557 z "},"±":{"ha":453,"x_min":0,"x_max":0,"o":""},"²":{"ha":453,"x_min":0,"x_max":0,"o":""},"³":{"ha":453,"x_min":0,"x_max":0,"o":""},"´":{"ha":453,"x_min":0,"x_max":0,"o":""},"µ":{"ha":453,"x_min":0,"x_max":0,"o":""},"¶":{"ha":453,"x_min":0,"x_max":0,"o":""},"·":{"ha":453,"x_min":0,"x_max":0,"o":""},"∙":{"ha":453,"x_min":0,"x_max":0,"o":""},"¸":{"ha":453,"x_min":0,"x_max":0,"o":""},"¹":{"ha":453,"x_min":0,"x_max":0,"o":""},"º":{"ha":453,"x_min":0,"x_max":0,"o":""},"»":{"ha":453,"x_min":0,"x_max":0,"o":""},"¼":{"ha":453,"x_min":0,"x_max":0,"o":""},"½":{"ha":453,"x_min":0,"x_max":0,"o":""},"¾":{"ha":453,"x_min":0,"x_max":0,"o":""},"¿":{"ha":453,"x_min":0,"x_max":0,"o":""},"À":{"ha":453,"x_min":0,"x_max":0,"o":""},"Á":{"ha":453,"x_min":0,"x_max":0,"o":""},"Â":{"ha":453,"x_min":0,"x_max":0,"o":""},"Ã":{"ha":453,"x_min":0,"x_max":0,"o":""},"Ä":{"ha":453,"x_min":0,"x_max":0,"o":""},"Å":{"ha":453,"x_min":0,"x_max":0,"o":""},"Æ":{"ha":453,"x_min":0,"x_max":0,"o":""},"Ç":{"ha":453,"x_min":0,"x_max":0,"o":""},"È":{"ha":453,"x_min":0,"x_max":0,"o":""},"É":{"ha":453,"x_min":0,"x_max":0,"o":""},"Ê":{"ha":453,"x_min":0,"x_max":0,"o":""},"Ë":{"ha":453,"x_min":0,"x_max":0,"o":""},"Ì":{"ha":453,"x_min":0,"x_max":0,"o":""},"Í":{"ha":453,"x_min":0,"x_max":0,"o":""},"Î":{"ha":453,"x_min":0,"x_max":0,"o":""},"Ï":{"ha":453,"x_min":0,"x_max":0,"o":""},"Ð":{"ha":453,"x_min":0,"x_max":0,"o":""},"Ñ":{"ha":453,"x_min":0,"x_max":0,"o":""},"Ò":{"ha":453,"x_min":0,"x_max":0,"o":""},"Ó":{"ha":453,"x_min":0,"x_max":0,"o":""},"Ô":{"ha":453,"x_min":0,"x_max":0,"o":""},"Õ":{"ha":453,"x_min":0,"x_max":0,"o":""},"Ö":{"ha":453,"x_min":0,"x_max":0,"o":""},"×":{"ha":453,"x_min":0,"x_max":0,"o":""},"Ø":{"ha":453,"x_min":0,"x_max":0,"o":""},"Ù":{"ha":453,"x_min":0,"x_max":0,"o":""},"Ú":{"ha":453,"x_min":0,"x_max":0,"o":""},"Û":{"ha":453,"x_min":0,"x_max":0,"o":""},"Ü":{"ha":453,"x_min":0,"x_max":0,"o":""},"Ý":{"ha":453,"x_min":0,"x_max":0,"o":""},"Þ":{"ha":453,"x_min":0,"x_max":0,"o":""},"ß":{"ha":453,"x_min":0,"x_max":0,"o":""},"à":{"ha":453,"x_min":0,"x_max":0,"o":""},"á":{"ha":453,"x_min":0,"x_max":0,"o":""},"â":{"ha":453,"x_min":0,"x_max":0,"o":""},"ã":{"ha":453,"x_min":0,"x_max":0,"o":""},"ä":{"ha":453,"x_min":0,"x_max":0,"o":""},"å":{"ha":453,"x_min":0,"x_max":0,"o":""},"æ":{"ha":453,"x_min":0,"x_max":0,"o":""},"ç":{"ha":453,"x_min":0,"x_max":0,"o":""},"è":{"ha":453,"x_min":0,"x_max":0,"o":""},"é":{"ha":453,"x_min":0,"x_max":0,"o":""},"ê":{"ha":453,"x_min":0,"x_max":0,"o":""},"ë":{"ha":453,"x_min":0,"x_max":0,"o":""},"ì":{"ha":453,"x_min":0,"x_max":0,"o":""},"í":{"ha":453,"x_min":0,"x_max":0,"o":""},"î":{"ha":453,"x_min":0,"x_max":0,"o":""},"ï":{"ha":453,"x_min":0,"x_max":0,"o":""},"ð":{"ha":453,"x_min":0,"x_max":0,"o":""},"ñ":{"ha":453,"x_min":0,"x_max":0,"o":""},"ò":{"ha":453,"x_min":0,"x_max":0,"o":""},"ó":{"ha":453,"x_min":0,"x_max":0,"o":""},"ô":{"ha":453,"x_min":0,"x_max":0,"o":""},"õ":{"ha":453,"x_min":0,"x_max":0,"o":""},"ö":{"ha":453,"x_min":0,"x_max":0,"o":""},"÷":{"ha":453,"x_min":0,"x_max":0,"o":""},"ø":{"ha":453,"x_min":0,"x_max":0,"o":""},"ù":{"ha":453,"x_min":0,"x_max":0,"o":""},"ú":{"ha":453,"x_min":0,"x_max":0,"o":""},"û":{"ha":453,"x_min":0,"x_max":0,"o":""},"ü":{"ha":453,"x_min":0,"x_max":0,"o":""},"ý":{"ha":453,"x_min":0,"x_max":0,"o":""},"þ":{"ha":453,"x_min":0,"x_max":0,"o":""},"ÿ":{"ha":453,"x_min":0,"x_max":0,"o":""},"ı":{"ha":453,"x_min":0,"x_max":0,"o":""},"̀":{"ha":453,"x_min":0,"x_max":0,"o":""},"́":{"ha":453,"x_min":0,"x_max":0,"o":""},"̂":{"ha":453,"x_min":0,"x_max":0,"o":""},"̃":{"ha":453,"x_min":0,"x_max":0,"o":""},"̄":{"ha":453,"x_min":0,"x_max":0,"o":""},"̇":{"ha":453,"x_min":0,"x_max":0,"o":""},"̈":{"ha":453,"x_min":0,"x_max":0,"o":""},"̊":{"ha":453,"x_min":0,"x_max":0,"o":""},"̌":{"ha":453,"x_min":0,"x_max":0,"o":""},"̧":{"ha":453,"x_min":0,"x_max":0,"o":""},"–":{"ha":745,"x_min":68,"x_max":569,"o":"m 68 389 l 68 389 l 68 515 l 569 515 l 569 389 l 68 389 z "},"—":{"ha":745,"x_min":68,"x_max":569,"o":"m 68 389 l 68 389 l 68 515 l 569 515 l 569 389 l 68 389 z "},"‘":{"ha":519,"x_min":68,"x_max":343,"o":"m 343 905 l 343 905 l 343 576 l 68 576 l 68 730 q 97 818 68 779 q 184 881 127 858 q 322 905 241 905 l 343 905 z "},"’":{"ha":519,"x_min":68,"x_max":343,"o":"m 68 576 l 68 576 l 68 905 l 343 905 l 343 750 q 314 662 343 702 q 228 599 284 623 q 89 576 171 576 l 68 576 z "},"‚":{"ha":453,"x_min":0,"x_max":0,"o":""},"“":{"ha":852,"x_min":68,"x_max":675,"o":"m 675 905 l 675 905 l 675 576 l 400 576 l 400 730 q 430 818 400 779 q 516 881 459 858 q 654 905 572 905 l 675 905 m 343 905 l 343 905 l 343 576 l 68 576 l 68 730 q 97 818 68 779 q 183 881 127 858 q 322 905 240 905 l 343 905 z "},"”":{"ha":852,"x_min":68,"x_max":675,"o":"m 68 576 l 68 576 l 68 905 l 343 905 l 343 750 q 314 662 343 702 q 228 599 284 623 q 89 576 171 576 l 68 576 m 400 576 l 400 576 l 400 905 l 675 905 l 675 750 q 646 662 675 702 q 560 599 616 623 q 421 576 503 576 l 400 576 z "},"„":{"ha":453,"x_min":0,"x_max":0,"o":""},"†":{"ha":453,"x_min":0,"x_max":0,"o":""},"‡":{"ha":453,"x_min":0,"x_max":0,"o":""},"•":{"ha":453,"x_min":0,"x_max":0,"o":""},"…":{"ha":453,"x_min":0,"x_max":0,"o":""},"‹":{"ha":453,"x_min":0,"x_max":0,"o":""},"›":{"ha":453,"x_min":0,"x_max":0,"o":""},"⁄":{"ha":609,"x_min":-107,"x_max":523,"o":"m 313 1109 l 313 1109 l 523 1109 l 102 -204 l -107 -204 l 313 1109 z "},"∕":{"ha":609,"x_min":-107,"x_max":523,"o":"m 313 1109 l 313 1109 l 523 1109 l 102 -204 l -107 -204 l 313 1109 z "},"₣":{"ha":453,"x_min":0,"x_max":0,"o":""},"₤":{"ha":453,"x_min":0,"x_max":0,"o":""},"₧":{"ha":453,"x_min":0,"x_max":0,"o":""},"€":{"ha":453,"x_min":0,"x_max":0,"o":""},"№":{"ha":453,"x_min":0,"x_max":0,"o":""},"™":{"ha":453,"x_min":0,"x_max":0,"o":""},"∂":{"ha":453,"x_min":0,"x_max":0,"o":""},"∆":{"ha":453,"x_min":0,"x_max":0,"o":""},"∏":{"ha":453,"x_min":0,"x_max":0,"o":""},"∑":{"ha":453,"x_min":0,"x_max":0,"o":""},"−":{"ha":745,"x_min":68,"x_max":569,"o":"m 68 389 l 68 389 l 68 515 l 569 515 l 569 389 l 68 389 z "},"√":{"ha":453,"x_min":0,"x_max":0,"o":""},"∞":{"ha":453,"x_min":0,"x_max":0,"o":""},"∫":{"ha":453,"x_min":0,"x_max":0,"o":""},"≈":{"ha":453,"x_min":0,"x_max":0,"o":""},"≤":{"ha":453,"x_min":0,"x_max":0,"o":""},"≥":{"ha":453,"x_min":0,"x_max":0,"o":""},"ﬁ":{"ha":453,"x_min":0,"x_max":0,"o":""},"ﬂ":{"ha":453,"x_min":0,"x_max":0,"o":""}}}
